<svg width="10" height="10" viewBox="0 0 10 10" fill="none" xmlns="http://www.w3.org/2000/svg">
    <path fill-rule="evenodd" clip-rule="evenodd"
          d="M1.64788 2.10878C1.25 2.65642 1.25 3.43761 1.25 5C1.25 6.56239 1.25 7.34358 1.64788 7.89122C1.77638 8.06808 1.93192 8.22362 2.10878 8.35212C2.65642 8.75 3.43761 8.75 5 8.75C6.56239 8.75 7.34358 8.75 7.89122 8.35212C8.06808 8.22362 8.22362 8.06808 8.35212 7.89122C8.75 7.34358 8.75 6.56239 8.75 5C8.75 3.43761 8.75 2.65642 8.35212 2.10878C8.22362 1.93192 8.06808 1.77638 7.89122 1.64788C7.34358 1.25 6.56239 1.25 5 1.25C3.43761 1.25 2.65642 1.25 2.10878 1.64788C1.93192 1.77638 1.77638 1.93192 1.64788 2.10878ZM5.3125 3.75C5.3125 3.57741 5.17259 3.4375 5 3.4375C4.82741 3.4375 4.6875 3.57741 4.6875 3.75V4.6875H3.75C3.57741 4.6875 3.4375 4.82741 3.4375 5C3.4375 5.17259 3.57741 5.3125 3.75 5.3125H4.6875V6.25C4.6875 6.42259 4.82741 6.5625 5 6.5625C5.17259 6.5625 5.3125 6.42259 5.3125 6.25V5.3125H6.25C6.42259 5.3125 6.5625 5.17259 6.5625 5C6.5625 4.82741 6.42259 4.6875 6.25 4.6875H5.3125V3.75Z"
          fill="#EFEFEF"/>
</svg>
