<svg width="16" height="16" viewBox="0 0 16 16" fill="none" xmlns="http://www.w3.org/2000/svg">
<path fill-rule="evenodd" clip-rule="evenodd" d="M12.1693 9.77633L12.3442 8.51964C12.398 8.13299 12.4472 7.77952 12.4909 7.45527C12.5807 6.78893 12.6257 6.45576 12.4264 6.22787C12.2272 5.99998 11.8848 5.99998 11.2 5.99998H4.79871C4.1139 5.99998 3.77149 5.99998 3.57227 6.22787C3.37304 6.45576 3.41797 6.78893 3.50783 7.45527C3.55157 7.77961 3.60073 8.13285 3.65456 8.51964L3.82945 9.77633C4.01952 11.1421 4.11456 11.8251 4.31608 12.3735C4.69291 13.3992 5.34431 14.1631 6.12179 14.4912C6.53755 14.6666 7.02483 14.6666 7.99936 14.6666C8.97389 14.6666 9.46116 14.6666 9.87692 14.4912C10.6544 14.1631 11.3058 13.3992 11.6826 12.3735C11.8841 11.8251 11.9792 11.1421 12.1693 9.77633ZM7.16602 7.33331C7.16602 7.05717 6.94216 6.83331 6.66602 6.83331C6.38987 6.83331 6.16602 7.05717 6.16602 7.33331V12.6666C6.16602 12.9428 6.38987 13.1666 6.66602 13.1666C6.94216 13.1666 7.16602 12.9428 7.16602 12.6666V7.33331ZM9.83268 7.33331C9.83268 7.05717 9.60882 6.83331 9.33268 6.83331C9.05654 6.83331 8.83268 7.05717 8.83268 7.33331V12.6666C8.83268 12.9428 9.05654 13.1666 9.33268 13.1666C9.60882 13.1666 9.83268 12.9428 9.83268 12.6666V7.33331Z" fill="#EB5757"/>
<path d="M7.99935 0.833313C6.25045 0.833313 4.83268 2.25108 4.83268 3.99998V4.16665H2.66602C2.38987 4.16665 2.16602 4.3905 2.16602 4.66665C2.16602 4.94279 2.38987 5.16665 2.66602 5.16665H13.3327C13.6088 5.16665 13.8327 4.94279 13.8327 4.66665C13.8327 4.3905 13.6088 4.16665 13.3327 4.16665H11.166V3.99998C11.166 2.25108 9.74825 0.833313 7.99935 0.833313Z" fill="#EB5757"/>
</svg>
