<svg width="16" height="16" viewBox="0 0 16 16" fill="none" xmlns="http://www.w3.org/2000/svg">
    <path fill-rule="evenodd" clip-rule="evenodd"
          d="M3.38042 6.00001C4.89615 3.3747 5.65401 2.06205 6.64344 1.62152C7.50646 1.23728 8.49199 1.23728 9.35501 1.62152C10.3444 2.06205 11.1023 3.3747 12.618 6.00001C14.1337 8.62532 14.8916 9.93797 14.7784 11.0151C14.6797 11.9546 14.1869 12.8081 13.4226 13.3634C12.5464 14 11.0307 14 7.99922 14C4.96778 14 3.45206 14 2.57584 13.3634C1.81156 12.8081 1.3188 11.9546 1.22005 11.0151C1.10684 9.93797 1.8647 8.62532 3.38042 6.00001ZM7.99919 4.16668C8.27533 4.16668 8.49919 4.39053 8.49919 4.66668V8.66668C8.49919 8.94282 8.27533 9.16668 7.99919 9.16668C7.72304 9.16668 7.49919 8.94282 7.49919 8.66668V4.66668C7.49919 4.39053 7.72304 4.16668 7.99919 4.16668ZM7.99919 11.3333C8.36738 11.3333 8.66585 11.0349 8.66585 10.6667C8.66585 10.2985 8.36738 10 7.99919 10C7.631 10 7.33252 10.2985 7.33252 10.6667C7.33252 11.0349 7.631 11.3333 7.99919 11.3333Z"
          fill="#EB5757"/>
</svg>
