<svg width="32" height="32" viewBox="0 0 32 32" fill="none" xmlns="http://www.w3.org/2000/svg">
<path fill-rule="evenodd" clip-rule="evenodd" d="M8.33333 9.33335C8.33333 5.09917 11.7658 1.66669 16 1.66669C20.2342 1.66669 23.6667 5.09917 23.6667 9.33335V10.8183C23.6667 10.9074 23.655 10.9937 23.6332 11.0759C25.548 11.7795 27.0405 13.3243 27.6737 15.2732C28 16.2775 28 17.5183 28 20C28 22.4817 28 23.7226 27.6737 24.7268C27.0143 26.7564 25.423 28.3476 23.3934 29.0071C22.3892 29.3334 21.1484 29.3334 18.6667 29.3334H13.3333C10.8516 29.3334 9.61077 29.3334 8.60655 29.0071C6.57697 28.3476 4.98574 26.7564 4.32629 24.7268C4 23.7226 4 22.4817 4 20C4 17.5183 4 16.2775 4.32629 15.2732C4.95955 13.3243 6.45204 11.7795 8.36683 11.0759C8.34498 10.9937 8.33333 10.9074 8.33333 10.8183V9.33335ZM10.3333 10.7122C11.093 10.6667 12.0463 10.6667 13.3333 10.6667H18.6667C19.9537 10.6667 20.907 10.6667 21.6667 10.7122V9.33335C21.6667 6.20374 19.1296 3.66669 16 3.66669C12.8704 3.66669 10.3333 6.20374 10.3333 9.33335V10.7122ZM16 16.3334C16.5523 16.3334 17 16.7811 17 17.3334V22.6667C17 23.219 16.5523 23.6667 16 23.6667C15.4477 23.6667 15 23.219 15 22.6667V17.3334C15 16.7811 15.4477 16.3334 16 16.3334Z" fill="#A7A2BD"/>
</svg>
