<svg width="137" height="32" viewBox="0 0 137 32" fill="none" xmlns="http://www.w3.org/2000/svg">
<g clip-path="url(#clip0_1271_9556)">
<path fill-rule="evenodd" clip-rule="evenodd" d="M31.912 0.112762L31.9104 27.0971L19.7221 31.7073V4.72306L31.912 0.112762ZM0.00148043 27.0971L0 0.112762L12.1898 4.72306V31.7073L0.00148043 27.0971Z" fill="url(#paint0_linear_1271_9556)"/>
</g>
<path d="M44.8523 10.5881V7.54545H59.1875V10.5881H53.8438V25H50.196V10.5881H44.8523ZM59.4007 25V11.9091H62.9206V14.1932H63.057C63.2956 13.3807 63.6962 12.767 64.2587 12.3523C64.8212 11.9318 65.4689 11.7216 66.2019 11.7216C66.3837 11.7216 66.5797 11.733 66.7899 11.7557C67.0002 11.7784 67.1848 11.8097 67.3439 11.8494V15.071C67.1735 15.0199 66.9377 14.9744 66.6365 14.9347C66.3354 14.8949 66.0598 14.875 65.8098 14.875C65.2757 14.875 64.7985 14.9915 64.378 15.2244C63.9632 15.4517 63.6337 15.7699 63.3894 16.179C63.1507 16.5881 63.0314 17.0597 63.0314 17.5938V25H59.4007ZM73.8576 25.2557C72.511 25.2557 71.3519 24.983 70.3803 24.4375C69.4144 23.8864 68.6701 23.108 68.1474 22.1023C67.6246 21.0909 67.3633 19.8949 67.3633 18.5142C67.3633 17.1676 67.6246 15.9858 68.1474 14.9688C68.6701 13.9517 69.4059 13.1591 70.3547 12.5909C71.3093 12.0227 72.4286 11.7386 73.7127 11.7386C74.5763 11.7386 75.3803 11.8778 76.1246 12.1562C76.8746 12.429 77.528 12.8409 78.0849 13.392C78.6474 13.9432 79.0849 14.6364 79.3974 15.4716C79.7099 16.3011 79.8661 17.2727 79.8661 18.3864V19.3835H68.8121V17.1335H76.4485C76.4485 16.6108 76.3349 16.1477 76.1076 15.7443C75.8803 15.3409 75.565 15.0256 75.1616 14.7983C74.7638 14.5653 74.3008 14.4489 73.7724 14.4489C73.2212 14.4489 72.7326 14.5767 72.3064 14.8324C71.886 15.0824 71.5564 15.4205 71.3178 15.8466C71.0792 16.267 70.957 16.7358 70.9513 17.2528V19.392C70.9513 20.0398 71.0707 20.5994 71.3093 21.071C71.5536 21.5426 71.8974 21.9062 72.3405 22.1619C72.7837 22.4176 73.3093 22.5455 73.9172 22.5455C74.3207 22.5455 74.69 22.4886 75.0252 22.375C75.3604 22.2614 75.6474 22.0909 75.886 21.8636C76.1246 21.6364 76.3064 21.358 76.4314 21.0284L79.7894 21.25C79.6189 22.0568 79.2695 22.7614 78.7411 23.3636C78.2184 23.9602 77.5422 24.4261 76.7127 24.7614C75.8888 25.0909 74.9371 25.2557 73.8576 25.2557ZM87.4813 25.2557C86.1347 25.2557 84.9757 24.983 84.0041 24.4375C83.0382 23.8864 82.2938 23.108 81.7711 22.1023C81.2484 21.0909 80.987 19.8949 80.987 18.5142C80.987 17.1676 81.2484 15.9858 81.7711 14.9688C82.2938 13.9517 83.0296 13.1591 83.9785 12.5909C84.933 12.0227 86.0524 11.7386 87.3364 11.7386C88.2001 11.7386 89.0041 11.8778 89.7484 12.1562C90.4984 12.429 91.1518 12.8409 91.7086 13.392C92.2711 13.9432 92.7086 14.6364 93.0211 15.4716C93.3336 16.3011 93.4899 17.2727 93.4899 18.3864V19.3835H82.4359V17.1335H90.0722C90.0722 16.6108 89.9586 16.1477 89.7313 15.7443C89.5041 15.3409 89.1887 15.0256 88.7853 14.7983C88.3876 14.5653 87.9245 14.4489 87.3961 14.4489C86.845 14.4489 86.3563 14.5767 85.9302 14.8324C85.5097 15.0824 85.1802 15.4205 84.9416 15.8466C84.7029 16.267 84.5808 16.7358 84.5751 17.2528V19.392C84.5751 20.0398 84.6944 20.5994 84.933 21.071C85.1774 21.5426 85.5211 21.9062 85.9643 22.1619C86.4075 22.4176 86.933 22.5455 87.541 22.5455C87.9444 22.5455 88.3137 22.4886 88.6489 22.375C88.9842 22.2614 89.2711 22.0909 89.5097 21.8636C89.7484 21.6364 89.9302 21.358 90.0552 21.0284L93.4132 21.25C93.2427 22.0568 92.8933 22.7614 92.3649 23.3636C91.8421 23.9602 91.166 24.4261 90.3364 24.7614C89.5126 25.0909 88.5609 25.2557 87.4813 25.2557ZM98.7699 17.4318V25H95.1392V11.9091H98.5994V14.2188H98.7528C99.0426 13.4574 99.5284 12.8551 100.21 12.4119C100.892 11.9631 101.719 11.7386 102.69 11.7386C103.599 11.7386 104.392 11.9375 105.068 12.3352C105.744 12.733 106.27 13.3011 106.645 14.0398C107.02 14.7727 107.207 15.6477 107.207 16.6648V25H103.577V17.3125C103.582 16.5114 103.378 15.8864 102.963 15.4375C102.548 14.983 101.977 14.7557 101.25 14.7557C100.761 14.7557 100.33 14.8608 99.9545 15.071C99.5852 15.2812 99.2954 15.5881 99.0852 15.9915C98.8807 16.3892 98.7755 16.8693 98.7699 17.4318ZM109.349 25V11.9091H112.98V25H109.349ZM111.173 10.2216C110.633 10.2216 110.17 10.0426 109.784 9.68466C109.403 9.32102 109.213 8.88636 109.213 8.38068C109.213 7.88068 109.403 7.4517 109.784 7.09375C110.17 6.73011 110.633 6.54829 111.173 6.54829C111.713 6.54829 112.173 6.73011 112.553 7.09375C112.94 7.4517 113.133 7.88068 113.133 8.38068C113.133 8.88636 112.94 9.32102 112.553 9.68466C112.173 10.0426 111.713 10.2216 111.173 10.2216ZM122.131 11.9091V14.6364H114.247V11.9091H122.131ZM116.037 8.77273H119.668V20.9773C119.668 21.3125 119.719 21.5739 119.821 21.7614C119.924 21.9432 120.066 22.071 120.247 22.1449C120.435 22.2187 120.651 22.2557 120.895 22.2557C121.066 22.2557 121.236 22.2415 121.407 22.2131C121.577 22.179 121.708 22.1534 121.799 22.1364L122.37 24.8381C122.188 24.8949 121.932 24.9602 121.603 25.0341C121.273 25.1136 120.872 25.1619 120.401 25.179C119.526 25.2131 118.759 25.0966 118.1 24.8295C117.446 24.5625 116.938 24.1477 116.574 23.5852C116.211 23.0227 116.032 22.3125 116.037 21.4545V8.77273ZM126.018 29.9091C125.557 29.9091 125.125 29.8722 124.722 29.7983C124.324 29.7301 123.995 29.642 123.733 29.5341L124.552 26.8239C124.978 26.9545 125.361 27.0256 125.702 27.0369C126.049 27.0483 126.347 26.9688 126.597 26.7983C126.853 26.6278 127.06 26.3381 127.219 25.929L127.432 25.375L122.736 11.9091H126.554L129.265 21.5227H129.401L132.137 11.9091H135.981L130.893 26.4148C130.648 27.1193 130.316 27.733 129.895 28.2557C129.481 28.7841 128.955 29.1903 128.319 29.4744C127.682 29.7642 126.915 29.9091 126.018 29.9091Z" fill="#26233F"/>
<defs>
<linearGradient id="paint0_linear_1271_9556" x1="15.956" y1="0.112788" x2="15.956" y2="31.7073" gradientUnits="userSpaceOnUse">
<stop stop-color="#0BAA4F"/>
<stop offset="1" stop-color="#22BB8C"/>
</linearGradient>
<clipPath id="clip0_1271_9556">
<rect width="32" height="32" fill="white"/>
</clipPath>
</defs>
</svg>
