<svg width="12" height="12" viewBox="0 0 12 12" fill="none" xmlns="http://www.w3.org/2000/svg">
    <path fill-rule="evenodd" clip-rule="evenodd"
          d="M6 1.5C3.51472 1.5 1.5 3.51472 1.5 6C1.5 8.48528 3.51472 10.5 6 10.5C8.48528 10.5 10.5 8.48528 10.5 6C10.5 3.51472 8.48528 1.5 6 1.5ZM0.5 6C0.5 2.96243 2.96243 0.5 6 0.5C9.03757 0.5 11.5 2.96243 11.5 6C11.5 9.03757 9.03757 11.5 6 11.5C2.96243 11.5 0.5 9.03757 0.5 6Z"
          fill="#EFEFEF"/>
    <path fill-rule="evenodd" clip-rule="evenodd"
          d="M4.76407 3.55916C4.92665 3.47215 5.12392 3.48169 5.27735 3.58398L8.27735 5.58398C8.41645 5.67671 8.5 5.83282 8.5 6C8.5 6.16718 8.41645 6.32329 8.27735 6.41603L5.27735 8.41603C5.12392 8.51831 4.92665 8.52785 4.76407 8.44084C4.60149 8.35383 4.5 8.1844 4.5 8V4C4.5 3.8156 4.60149 3.64617 4.76407 3.55916ZM5.5 4.93426V7.06574L7.09861 6L5.5 4.93426Z"
          fill="#EFEFEF"/>
</svg>
